<?xml version="1.0" encoding="iso-8859-1"?>
<!-- Generator: Adobe Illustrator 24.1.2, SVG Export Plug-In . SVG Version: 6.00 Build 0)  -->
<svg version="1.1" xmlns="http://www.w3.org/2000/svg" xmlns:xlink="http://www.w3.org/1999/xlink" x="0px" y="0px"
	 viewBox="0 0 32 32" style="enable-background:new 0 0 32 32;" xml:space="preserve">
<g id="prague--charles--bridge--tower">
	<path id="prague--charles--bridge--tower_1_" d="M15,1c0-0.276,0.224-0.5,0.5-0.5S16,0.724,16,1c0,0.276-0.224,0.5-0.5,0.5
		S15,1.276,15,1z M19,6.5c0.276,0,0.5-0.224,0.5-0.5c0-0.276-0.224-0.5-0.5-0.5S18.5,5.724,18.5,6C18.5,6.276,18.724,6.5,19,6.5z
		 M12.5,1.5C12.776,1.5,13,1.276,13,1c0-0.276-0.224-0.5-0.5-0.5S12,0.724,12,1C12,1.276,12.224,1.5,12.5,1.5z M28.86,20H28.14v1
		h0.721V20z M3.86,20H3.14v1h0.72V20z M21.5,5C21.776,5,22,4.776,22,4.5C22,4.224,21.776,4,21.5,4S21,4.224,21,4.5
		C21,4.776,21.224,5,21.5,5z M9,6.5c0.276,0,0.5-0.224,0.5-0.5c0-0.276-0.224-0.5-0.5-0.5S8.5,5.724,8.5,6
		C8.5,6.276,8.724,6.5,9,6.5z M16.64,15v2h0.72v-2H16.64z M14.64,17h0.72v-2h-0.72V17z M12.64,17h0.72v-2h-0.72V17z M10.64,17h0.72
		v-2h-0.72V17z M21.36,20H20.64v2h0.721V20z M21.36,15H20.64v2h0.721V15z M21.36,25H20.64v2h0.721V25z M13.64,19.5v3h0.72v-3H13.64z
		 M30.36,28.64v2.721H29.64v-2H27.36v2H4.64v-2H2.36v2H1.64V28.64h1.5V24.36H3c-0.165,0-0.309-0.112-0.349-0.273l-0.5-2
		c-0.027-0.107-0.003-0.221,0.065-0.309C2.285,21.691,2.389,21.64,2.5,21.64h2c0.111,0,0.215,0.052,0.284,0.139
		c0.068,0.088,0.092,0.201,0.065,0.309l-0.5,2C4.309,24.248,4.165,24.36,4,24.36H3.86v4.279h1.5v2h3.28V24.36H8V23.64h0.64V18.36H8
		V17.64h0.64v-4.28H8v-0.72h0.64v-1.28H8v-0.72h0.64V7h0.72v3.64h1.349l1.431-6.679V2h0.72v1.64h2.28V2h0.72v1.962l1.431,6.679
		h1.349V7h0.721v3.64h0.39l1.389-3.706V5.5h0.721v1.435l1.367,3.706H24v0.72h-0.64v1.28H24v0.72h-0.64v17.28h3.279v-2h1.5V24.36H28
		c-0.165,0-0.31-0.112-0.35-0.273l-0.5-2c-0.026-0.107-0.002-0.221,0.065-0.309c0.068-0.087,0.173-0.139,0.284-0.139h2
		c0.111,0,0.216,0.052,0.284,0.139c0.067,0.088,0.092,0.201,0.065,0.309l-0.5,2c-0.04,0.161-0.185,0.273-0.35,0.273h-0.14v4.279
		H30.36z M28.281,23.64h0.438l0.32-1.279h-1.078L28.281,23.64z M3.281,23.64h0.438l0.32-1.279H2.961L3.281,23.64z M22.64,13.36
		H19.36v4.28H20v0.721h-0.64v5.279H20v0.721h-0.64v6.279h3.279V13.36z M20.519,10.64h1.961L21.5,8.025L20.519,10.64z M19.36,11.36
		v1.28h3.279v-1.28H19.36z M13.36,10.64h1.28V4.36h-1.28V10.64z M15.36,10.64h1.195L15.36,5.064V10.64z M11.445,10.64h1.195V5.064
		L11.445,10.64z M9.36,12.64h9.28v-1.28H9.36V12.64z M9.36,17.64h9.28v-4.28H9.36V17.64z M9.36,23.64h9.28V18.36H9.36V23.64z
		 M9.36,30.64h2.28v-1.973c0-1.787,1.469-2.749,2.246-3.009L14,25.62l0.114,0.038c0.777,0.26,2.246,1.222,2.246,3.009v1.973h2.28
		V24.36H9.36V30.64z M15.64,28.667c0-1.471-1.247-2.114-1.64-2.281c-0.393,0.167-1.64,0.811-1.64,2.281v1.973h3.28V28.667z"/>
</g>
<g id="Layer_1">
</g>
</svg>
